<?xml version="1.0" standalone="no"?>
<!DOCTYPE svg PUBLIC "-//W3C//DTD SVG 20010904//EN"
 "http://www.w3.org/TR/2001/REC-SVG-20010904/DTD/svg10.dtd">
<svg version="1.0" xmlns="http://www.w3.org/2000/svg"
 width="800.000000pt" height="800.000000pt" viewBox="0 0 800.000000 800.000000"
 preserveAspectRatio="xMidYMid meet">
<metadata>
Created by potrace 1.14, written by Peter Selinger 2001-2017
</metadata>
<g transform="translate(0.000000,800.000000) scale(0.100000,-0.100000)"
fill="#000000" stroke="none">
<path d="M0 5089 l0 -2911 63 54 c34 29 67 58 73 63 6 6 39 35 74 65 35 30 68
60 74 65 6 6 67 60 136 120 69 60 127 112 130 115 3 3 43 39 90 80 46 41 160
148 253 237 l170 162 101 -4 c98 -4 98 -4 25 4 -201 22 -366 106 -512 261
-116 123 -196 296 -214 463 -3 31 -4 57 -1 57 3 0 106 11 229 25 123 13 265
29 314 34 91 10 453 23 425 16 -8 -2 -118 -16 -245 -30 -300 -33 -275 -26
-264 -76 11 -47 43 -114 60 -125 8 -4 9 -3 5 4 -10 17 6 15 32 -4 41 -29 152
-36 272 -17 35 6 66 15 68 22 2 6 16 11 30 11 15 0 41 9 59 20 29 17 32 17 27
2 -2 -9 8 8 22 38 l27 55 -12 190 c-6 105 -20 321 -31 480 -10 160 -22 331
-25 380 -3 50 -7 119 -10 155 -3 36 -7 106 -11 156 l-6 90 184 13 c100 7 209
15 241 18 51 5 57 4 57 -13 0 -14 3 -15 8 -6 12 19 422 -105 421 -127 0 -11
-2 -12 -6 -3 -2 6 -20 12 -39 12 -23 0 -33 4 -28 11 4 8 1 8 -12 1 -11 -5 -28
-6 -39 -1 -11 4 -38 8 -60 8 -30 1 -36 4 -25 11 13 8 13 10 -1 10 -23 0 -79
-59 -85 -90 -8 -34 -11 -41 -31 -70 -10 -13 -12 -21 -5 -16 10 6 11 1 6 -21
-4 -15 -10 -30 -14 -33 -4 -3 -10 -15 -14 -27 -4 -11 -13 -24 -21 -27 -10 -4
-15 8 -19 47 -3 29 -8 68 -10 87 -9 72 5 -191 35 -670 41 -649 37 -703 -57
-895 -71 -148 -176 -259 -321 -343 -32 -19 -49 -31 -38 -27 11 4 108 38 215
76 226 81 264 89 300 60 23 -18 25 -28 29 -105 l3 -86 99 0 c59 0 99 4 99 10
0 6 12 10 28 11 15 0 21 3 15 6 -20 7 4 43 28 43 11 0 18 4 14 10 -7 11 34 60
50 60 6 0 19 14 28 30 10 17 22 30 28 30 5 0 9 5 9 11 0 5 -4 8 -9 4 -14 -8
17 51 34 65 8 7 15 27 15 44 0 18 5 37 12 44 7 7 8 12 2 12 -9 0 -17 49 -16
103 1 9 -4 17 -10 17 -6 0 -5 6 3 16 7 9 12 33 11 55 -2 21 1 39 5 39 4 0 9
37 11 82 5 139 12 100 12 -71 0 -150 1 -162 18 -157 19 6 144 34 212 47 47 9
51 10 88 23 19 6 33 39 15 34 -8 -2 -43 8 -183 51 l-85 26 70 5 c42 3 62 7 49
11 -12 4 -30 19 -39 33 -17 26 -17 27 5 51 13 14 31 26 39 26 39 3 -51 17
-116 18 l-73 1 10 25 c9 24 8 52 -4 100 -2 11 -5 28 -5 39 -1 12 -6 16 -17 12
-8 -3 -12 -2 -9 4 3 6 2 10 -3 10 -6 0 -10 6 -9 13 0 6 -1 28 -2 47 -1 27 -4
31 -11 20 -8 -13 -10 -12 -10 3 0 9 -9 25 -20 34 -11 10 -20 27 -20 39 0 12
-7 41 -16 65 -8 24 -17 60 -19 79 -2 19 -7 53 -10 75 -7 43 -7 96 0 103 2 3
-2 20 -10 39 -8 20 -15 46 -15 60 0 15 -4 22 -11 18 -6 -4 -9 -1 -8 6 5 24
-12 77 -27 90 -12 10 -12 14 -2 20 9 6 9 9 1 9 -6 0 -14 13 -18 30 -4 16 -10
32 -15 35 -15 9 -67 109 -74 142 -4 17 -14 37 -22 44 -8 6 -14 19 -14 28 0 9
-5 22 -12 29 -18 18 -18 41 1 47 9 3 154 1 321 -5 168 -5 330 -10 361 -10 l57
0 54 73 c30 39 131 164 224 277 149 181 331 408 544 680 37 47 105 137 151
200 46 63 138 187 204 276 66 89 156 211 199 271 44 59 109 149 146 198 178
241 414 577 573 817 l19 28 -2526 0 -2526 0 0 -2911z"/>
<path d="M1923 5270 c0 -36 2 -50 4 -32 2 17 2 47 0 65 -2 17 -4 3 -4 -33z"/>
<path d="M7889 5114 c-86 -121 -256 -340 -371 -478 l-24 -29 -47 66 c-69 97
-186 210 -322 312 -136 102 -268 172 -400 212 -83 25 -104 27 -272 28 -123 0
-186 -4 -193 -11 -9 -9 -1 -10 29 -4 183 33 433 -10 629 -109 67 -34 266 -180
258 -189 -4 -3 -17 5 -31 18 -14 13 -25 19 -25 13 0 -6 19 -23 43 -38 23 -16
36 -21 28 -12 -7 9 -9 17 -3 17 12 0 34 -25 27 -32 -3 -3 5 -13 17 -24 l23
-19 -19 23 c-11 12 -15 22 -9 22 18 0 41 -35 37 -58 -3 -16 0 -21 8 -16 10 6
11 4 1 -7 -18 -19 -16 -32 4 -25 10 4 14 4 10 0 -3 -4 14 -29 38 -56 25 -28
45 -57 45 -65 0 -8 5 -11 10 -8 6 3 10 2 10 -4 0 -5 -5 -11 -11 -13 -7 -2 -9
-13 -5 -26 4 -13 12 -19 18 -16 7 4 8 2 4 -4 -4 -6 5 -29 19 -50 17 -25 23
-45 19 -57 -6 -14 -4 -16 7 -10 12 8 12 6 0 -8 -7 -9 -15 -34 -16 -54 -3 -49
-4 -50 -14 -34 -6 9 -10 4 -13 -18 -4 -30 -4 -31 16 -14 12 10 15 11 9 3 -16
-18 -17 -34 -1 -24 7 4 8 3 4 -5 -4 -6 -11 -9 -16 -6 -4 3 -14 -3 -21 -13 -11
-14 -11 -15 0 -5 7 6 20 9 27 6 19 -7 18 -21 -2 -19 -11 1 -17 -8 -20 -27 -2
-19 1 -25 9 -21 7 4 2 -4 -10 -17 l-23 -23 -36 42 c-31 36 -38 41 -52 30 -13
-11 -15 -10 -9 5 7 17 -7 24 -17 8 -11 -17 6 -42 23 -36 10 4 7 -3 -8 -19 -14
-15 -19 -26 -12 -26 7 0 9 -5 5 -11 -4 -8 -9 -7 -14 2 -7 10 -11 10 -24 0 -9
-8 -16 -10 -16 -6 0 4 -7 2 -15 -5 -8 -6 -20 -8 -26 -4 -8 4 -9 3 -5 -5 4 -6
2 -18 -4 -26 -10 -11 -10 -15 -1 -15 7 0 9 -5 5 -11 -4 -8 -9 -7 -14 2 -7 10
-11 10 -24 0 -9 -8 -16 -10 -16 -6 0 4 8 14 18 21 9 7 12 14 5 14 -6 0 -15 -5
-19 -11 -4 -8 -9 -7 -16 2 -10 13 -6 -2 9 -38 3 -7 1 -13 -4 -13 -5 0 -10 6
-11 13 -5 55 -62 217 -76 217 -3 0 4 -20 15 -45 75 -170 56 -368 -52 -529 -81
-122 -186 -201 -334 -252 -70 -24 -94 -28 -200 -27 -82 0 -136 5 -170 16 -27
9 -51 14 -53 12 -2 -2 7 -7 22 -11 21 -5 26 -12 26 -38 0 -23 -3 -27 -10 -16
-7 12 -9 11 -10 -5 0 -11 -1 -37 -1 -57 -1 -21 -4 -36 -8 -34 -4 3 -7 -4 -7
-15 0 -10 5 -19 10 -19 5 0 -1 -10 -14 -22 l-25 -23 23 -3 c13 -2 21 -9 19
-15 -3 -7 -11 -10 -18 -9 -8 2 -11 0 -7 -4 4 -4 3 -13 -3 -21 -9 -10 -8 -17 1
-28 15 -18 -3 -47 -25 -39 -7 3 -16 1 -20 -5 -3 -6 -1 -11 5 -11 7 0 8 -6 1
-17 -5 -10 -9 -22 -10 -28 -1 -5 -5 -10 -10 -10 -24 0 -20 -15 5 -20 16 -4 40
-11 54 -16 44 -16 -37 0 -114 23 -103 30 -104 30 -62 10 l40 -18 -243 -252
c-134 -139 -249 -255 -256 -259 -13 -8 -50 -43 -370 -352 -77 -75 -235 -224
-350 -331 -279 -259 -413 -384 -625 -586 -52 -50 -135 -128 -185 -175 -49 -46
-137 -129 -195 -184 -94 -89 -177 -169 -554 -525 -55 -52 -143 -136 -196 -186
-52 -50 -117 -112 -145 -137 l-50 -46 2543 -1 2542 0 0 2630 c0 1447 -1 2630
-3 2630 -2 0 -50 -66 -108 -146z m-470 -434 c46 -62 76 -110 68 -110 -2 0 -22
28 -45 63 -23 34 -64 86 -91 115 -78 85 -89 101 -33 47 30 -27 75 -79 101
-115z m111 -184 c0 -12 -5 -7 -19 24 -11 24 -11 24 3 6 9 -11 16 -24 16 -30z
m-325 -346 c-3 -5 -11 -10 -16 -10 -6 0 -7 5 -4 10 3 6 11 10 16 10 6 0 7 -4
4 -10z m25 -44 c0 -5 -6 -4 -13 3 -10 8 -17 7 -27 -2 -8 -6 -6 -2 5 11 14 17
21 19 27 10 4 -7 8 -17 8 -22z m-71 -40 c0 -7 -2 -6 -6 2 -2 6 -11 12 -19 12
-9 0 -12 5 -9 10 8 13 35 -6 34 -24z m41 14 c0 -5 -2 -10 -4 -10 -3 0 -8 5
-11 10 -3 6 -1 10 4 10 6 0 11 -4 11 -10z m-70 -40 c0 -5 -5 -10 -11 -10 -5 0
-7 5 -4 10 3 6 8 10 11 10 2 0 4 -4 4 -10z m373 -455 c-3 -9 -8 -14 -10 -11
-3 3 -2 9 2 15 9 16 15 13 8 -4z m-93 -148 c0 -2 -10 -12 -22 -23 l-23 -19 19
23 c18 21 26 27 26 19z m-1130 -41 c0 -2 -7 -9 -15 -16 -13 -11 -14 -10 -9 4
5 14 24 23 24 12z m1050 -49 c0 -2 -10 -12 -22 -23 l-23 -19 19 23 c18 21 26
27 26 19z m-1030 -131 c0 -2 -8 -10 -17 -17 -16 -13 -17 -12 -4 4 13 16 21 21
21 13z m-50 -21 c-7 -9 -15 -13 -17 -11 -7 7 7 26 19 26 6 0 6 -6 -2 -15z
m-30 -99 c0 -2 -7 -7 -16 -10 -8 -3 -12 -2 -9 4 6 10 25 14 25 6z"/>
<path d="M3774 5199 c3 -17 7 -61 8 -98 0 -36 3 -51 5 -33 5 34 23 35 23 1 0
-11 4 -18 8 -15 5 3 6 -15 2 -39 -4 -29 -3 -46 4 -48 7 -2 6 -10 -4 -22 -11
-14 -12 -17 -1 -11 11 7 11 5 4 -9 -6 -10 -7 -32 -3 -51 4 -19 4 -34 0 -34 -5
0 -11 28 -14 63 -12 124 -14 130 -10 22 6 -168 75 -1308 81 -1325 2 -8 7 -10
11 -5 13 19 82 45 144 54 35 5 182 17 328 26 146 8 272 17 281 19 14 3 16 -9
15 -88 0 -50 3 -167 8 -259 7 -141 10 -165 20 -145 8 14 20 22 32 21 10 -2 80
-6 154 -9 207 -10 386 29 574 123 55 28 98 43 112 40 27 -5 27 -4 -31 73 -126
167 -195 380 -196 600 -1 104 -1 105 -20 81 -16 -19 -22 -21 -34 -11 -22 18
-20 9 30 -156 l45 -149 -40 -36 c-102 -92 -256 -144 -405 -136 -86 4 -205 37
-205 56 0 5 10 21 21 36 15 19 23 46 26 89 6 75 -14 121 -72 176 -21 19 -48
46 -61 59 -13 13 -24 21 -24 17 0 -4 -25 22 -56 56 -59 66 -89 117 -110 183
l-12 40 -11 -29 c-33 -83 -30 -251 5 -335 8 -18 14 -36 14 -40 -1 -12 -39 65
-40 80 0 8 -11 26 -25 39 -14 13 -25 29 -25 36 0 6 -7 17 -15 24 -8 7 -15 28
-15 46 0 19 -3 34 -7 34 -5 0 -9 12 -9 26 -1 14 -9 31 -18 37 -9 7 -17 22 -19
33 -1 12 -10 29 -20 38 -9 10 -20 29 -23 44 -10 39 -63 154 -81 174 -10 11
-16 40 -17 79 -1 40 -7 63 -16 69 -12 7 -9 17 18 55 18 26 28 44 22 40 -6 -4
-35 -43 -65 -88 -30 -45 -55 -76 -55 -69 0 7 5 23 11 34 6 11 12 33 14 47 1
14 5 38 10 54 7 26 5 27 -27 27 -58 0 -67 20 -83 181 -8 79 -18 160 -23 179
-8 33 -10 35 -48 32 -31 -2 -36 0 -24 9 13 9 12 10 -3 5 -10 -3 -21 -6 -23 -6
-2 0 -4 -7 -4 -16 0 -11 5 -14 17 -10 14 6 12 2 -5 -17 -27 -28 -28 -38 -4
-30 14 5 13 3 -3 -10 -19 -15 -20 -14 -25 36 -3 29 -1 55 5 59 6 4 2 8 -9 8
-15 0 -17 -5 -12 -31z m43 -411 c-3 -8 -6 -5 -6 6 -1 11 2 17 5 13 3 -3 4 -12
1 -19z m1493 -703 c7 -8 8 -15 2 -15 -5 0 -15 7 -22 15 -7 8 -8 15 -2 15 5 0
15 -7 22 -15z"/>
<path d="M6148 5183 c7 -3 16 -2 19 1 4 3 -2 6 -13 5 -11 0 -14 -3 -6 -6z"/>
<path d="M3273 5045 c0 -22 2 -30 4 -17 2 12 2 30 0 40 -3 9 -5 -1 -4 -23z"/>
<path d="M5606 5010 c32 -39 41 -58 16 -36 -22 19 -22 19 -23 -2 -2 -28 -2
-29 -24 -77 -10 -22 -20 -46 -21 -52 -1 -7 -36 -50 -78 -95 -67 -71 -74 -83
-59 -91 29 -15 43 -39 43 -71 l0 -31 23 40 c68 119 168 258 231 324 39 40 61
69 49 62 -12 -6 -41 -11 -64 -11 -35 0 -50 6 -78 33 -22 20 -28 22 -15 7z m4
-113 c0 -2 -12 -14 -27 -28 l-28 -24 24 28 c23 25 31 32 31 24z"/>
<path d="M3282 4935 c0 -33 3 -99 6 -147 7 -82 6 -88 -12 -88 -16 0 -15 -2 5
-19 13 -11 25 -16 26 -13 2 4 -4 79 -11 167 -7 88 -14 133 -14 100z"/>
<path d="M4200 4883 l-65 -68 68 65 c37 35 67 66 67 67 0 8 -10 -2 -70 -64z"/>
<path d="M2580 4549 c0 -149 1 -161 18 -154 27 11 550 18 612 8 l55 -8 -4
-200 c-2 -164 -1 -198 10 -187 26 24 57 14 70 -23 20 -54 25 -26 17 87 -23
337 -29 398 -37 398 -3 0 -12 -9 -18 -19 -11 -18 -22 -19 -125 -15 -106 4
-312 18 -457 30 -35 3 -59 9 -52 13 8 5 6 13 -9 26 -16 15 -20 31 -20 82 0 72
11 100 43 113 16 6 6 9 -40 9 l-63 1 0 -161z"/>
<path d="M6365 4620 c-169 -25 -334 -122 -425 -250 -12 -17 14 5 57 47 90 91
181 143 299 173 198 51 426 -1 550 -124 67 -68 88 -129 82 -235 -10 -149 -86
-276 -219 -366 -97 -67 -159 -86 -291 -92 -90 -5 -117 -2 -177 16 -119 36
-199 91 -267 183 -80 109 -107 234 -70 323 13 32 13 36 1 21 -20 -27 -54 -119
-66 -180 -41 -218 59 -443 257 -576 62 -41 84 -50 119 -50 24 0 47 5 50 10 4
6 10 8 14 5 9 -5 39 26 65 69 13 20 16 38 11 65 -7 37 -49 91 -71 91 -7 0 -15
4 -18 8 -3 5 25 4 62 -1 82 -11 196 4 280 37 212 83 347 282 338 494 -6 124
-11 137 -80 191 -146 116 -328 167 -501 141z"/>
<path d="M7229 4233 c-13 -16 -12 -17 4 -4 16 13 21 21 13 21 -2 0 -10 -8 -17
-17z"/>
<path d="M7235 4210 c-16 -17 -16 -20 -3 -15 9 4 19 13 22 21 7 19 2 18 -19
-6z"/>
<path d="M7195 4200 c-3 -5 -1 -10 4 -10 6 0 11 5 11 10 0 6 -2 10 -4 10 -3 0
-8 -4 -11 -10z"/>
<path d="M2585 4060 c-3 -5 -1 -10 4 -10 6 0 11 5 11 10 0 6 -2 10 -4 10 -3 0
-8 -4 -11 -10z"/>
<path d="M3358 3895 c-5 -38 -13 -56 -37 -77 l-31 -28 35 0 c31 0 36 -3 42
-30 3 -16 9 -30 14 -30 5 0 6 12 3 28 -3 15 -8 63 -12 107 -8 79 -8 80 -14 30z"/>
<path d="M3372 3660 c0 -19 2 -27 5 -17 2 9 2 25 0 35 -3 9 -5 1 -5 -18z"/>
<path d="M3294 3589 c-10 -4 -14 -8 -7 -8 14 -1 13 -101 -1 -101 -5 0 -4 -6 1
-12 5 -7 8 -23 7 -35 0 -12 5 -24 12 -27 7 -3 19 -24 26 -48 7 -24 25 -62 40
-84 15 -23 28 -56 28 -72 0 -17 5 -34 10 -37 13 -8 13 63 0 175 -5 47 -12 125
-15 173 l-7 88 -38 -3 c-20 -1 -46 -5 -56 -9z"/>
<path d="M2475 3310 c-10 -11 -15 -20 -11 -20 11 0 39 30 34 36 -3 2 -13 -5
-23 -16z"/>
<path d="M1278 3133 c6 -2 18 -2 25 0 6 3 1 5 -13 5 -14 0 -19 -2 -12 -5z"/>
</g>
</svg>
